<mxfile host="app.diagrams.net" modified="2022-10-31T01:24:52.384Z" agent="5.0 (Windows NT 10.0; Win64; x64) AppleWebKit/537.36 (KHTML, like Gecko) Chrome/106.0.0.0 Safari/537.36" etag="gBDDU10PwSUkpvtnhVLS" version="20.4.0" type="github">
  <diagram id="p1AXJYc_SpONw6VFGxzo" name="第 1 页">
    <mxGraphModel dx="2249" dy="3100" grid="1" gridSize="10" guides="1" tooltips="1" connect="1" arrows="1" fold="1" page="1" pageScale="1" pageWidth="827" pageHeight="1169" math="0" shadow="0">
      <root>
        <mxCell id="0" />
        <mxCell id="1" parent="0" />
        <mxCell id="GB9RlgLRgatuVVAukmtW-3" value="" style="edgeStyle=orthogonalEdgeStyle;rounded=0;orthogonalLoop=1;jettySize=auto;html=1;" parent="1" source="GB9RlgLRgatuVVAukmtW-1" target="GB9RlgLRgatuVVAukmtW-2" edge="1">
          <mxGeometry relative="1" as="geometry" />
        </mxCell>
        <mxCell id="GB9RlgLRgatuVVAukmtW-1" value="生成一条添加批次的任务" style="rounded=0;whiteSpace=wrap;html=1;fillColor=#ffcc99;strokeColor=#36393d;" parent="1" vertex="1">
          <mxGeometry x="70" y="-890" width="120" height="60" as="geometry" />
        </mxCell>
        <mxCell id="GB9RlgLRgatuVVAukmtW-5" value="yes" style="edgeStyle=orthogonalEdgeStyle;rounded=0;orthogonalLoop=1;jettySize=auto;html=1;" parent="1" source="GB9RlgLRgatuVVAukmtW-2" target="GB9RlgLRgatuVVAukmtW-4" edge="1">
          <mxGeometry x="-0.3793" relative="1" as="geometry">
            <Array as="points">
              <mxPoint x="260" y="-760" />
            </Array>
            <mxPoint as="offset" />
          </mxGeometry>
        </mxCell>
        <mxCell id="GB9RlgLRgatuVVAukmtW-50" value="no" style="edgeStyle=orthogonalEdgeStyle;rounded=0;orthogonalLoop=1;jettySize=auto;html=1;fontSize=13;" parent="1" source="GB9RlgLRgatuVVAukmtW-2" target="GB9RlgLRgatuVVAukmtW-49" edge="1">
          <mxGeometry x="0.1429" relative="1" as="geometry">
            <mxPoint as="offset" />
          </mxGeometry>
        </mxCell>
        <mxCell id="GB9RlgLRgatuVVAukmtW-2" value="自动生成设备" style="rhombus;whiteSpace=wrap;html=1;rounded=0;" parent="1" vertex="1">
          <mxGeometry x="90" y="-800" width="80" height="80" as="geometry" />
        </mxCell>
        <mxCell id="ehhJM1RL-bTGxjUs8TGh-6" style="edgeStyle=orthogonalEdgeStyle;rounded=0;orthogonalLoop=1;jettySize=auto;html=1;" edge="1" parent="1" source="GB9RlgLRgatuVVAukmtW-4" target="GB9RlgLRgatuVVAukmtW-14">
          <mxGeometry relative="1" as="geometry" />
        </mxCell>
        <mxCell id="GB9RlgLRgatuVVAukmtW-4" value="&lt;font style=&quot;font-size: 13px;&quot;&gt;填写mac的前缀（5字符）+后缀（3字符）+数量（最大5w）+vendor+&lt;span style=&quot;color: rgb(51, 51, 51); font-family: &amp;quot;Arial Negreta&amp;quot;, &amp;quot;Arial Normal&amp;quot;, Arial, sans-serif; font-weight: 700; text-align: left;&quot;&gt;Security control（是否生成st...）+batchName+batch description&lt;/span&gt;&lt;/font&gt;" style="whiteSpace=wrap;html=1;rounded=0;" parent="1" vertex="1">
          <mxGeometry x="170" y="-560" width="180" height="100" as="geometry" />
        </mxCell>
        <mxCell id="GB9RlgLRgatuVVAukmtW-21" value="" style="edgeStyle=orthogonalEdgeStyle;rounded=0;orthogonalLoop=1;jettySize=auto;html=1;fontSize=13;" parent="1" source="GB9RlgLRgatuVVAukmtW-14" target="GB9RlgLRgatuVVAukmtW-20" edge="1">
          <mxGeometry relative="1" as="geometry">
            <Array as="points">
              <mxPoint x="260" y="-180" />
              <mxPoint x="130" y="-180" />
            </Array>
          </mxGeometry>
        </mxCell>
        <mxCell id="GB9RlgLRgatuVVAukmtW-23" value="yes" style="edgeStyle=orthogonalEdgeStyle;rounded=0;orthogonalLoop=1;jettySize=auto;html=1;fontSize=13;entryX=0.5;entryY=0;entryDx=0;entryDy=0;" parent="1" source="GB9RlgLRgatuVVAukmtW-20" target="GB9RlgLRgatuVVAukmtW-39" edge="1">
          <mxGeometry relative="1" as="geometry">
            <mxPoint x="260" y="80" as="targetPoint" />
          </mxGeometry>
        </mxCell>
        <mxCell id="GB9RlgLRgatuVVAukmtW-31" value="no" style="edgeStyle=orthogonalEdgeStyle;rounded=0;orthogonalLoop=1;jettySize=auto;html=1;fontSize=13;entryX=0.5;entryY=0;entryDx=0;entryDy=0;" parent="1" source="GB9RlgLRgatuVVAukmtW-20" target="GB9RlgLRgatuVVAukmtW-33" edge="1">
          <mxGeometry relative="1" as="geometry">
            <mxPoint x="60" y="-50" as="targetPoint" />
          </mxGeometry>
        </mxCell>
        <mxCell id="GB9RlgLRgatuVVAukmtW-20" value="endUser正常返回" style="rhombus;whiteSpace=wrap;html=1;rounded=0;" parent="1" vertex="1">
          <mxGeometry x="90" y="-100" width="80" height="80" as="geometry" />
        </mxCell>
        <mxCell id="GB9RlgLRgatuVVAukmtW-24" value="end" style="ellipse;whiteSpace=wrap;html=1;aspect=fixed;fontSize=13;fillColor=#cce5ff;strokeColor=#36393d;" parent="1" vertex="1">
          <mxGeometry x="90" y="290" width="80" height="80" as="geometry" />
        </mxCell>
        <mxCell id="ehhJM1RL-bTGxjUs8TGh-2" value="" style="edgeStyle=orthogonalEdgeStyle;rounded=0;orthogonalLoop=1;jettySize=auto;html=1;" edge="1" parent="1" source="GB9RlgLRgatuVVAukmtW-33" target="ehhJM1RL-bTGxjUs8TGh-1">
          <mxGeometry relative="1" as="geometry" />
        </mxCell>
        <mxCell id="GB9RlgLRgatuVVAukmtW-33" value="将任务标注为失败" style="whiteSpace=wrap;html=1;rounded=0;fillColor=#ffcc99;strokeColor=#36393d;" parent="1" vertex="1">
          <mxGeometry x="-60" y="60" width="120" height="60" as="geometry" />
        </mxCell>
        <mxCell id="GB9RlgLRgatuVVAukmtW-35" value="添加批次" style="rounded=0;whiteSpace=wrap;html=1;" parent="1" vertex="1">
          <mxGeometry x="70" y="-1310" width="120" height="60" as="geometry" />
        </mxCell>
        <mxCell id="GB9RlgLRgatuVVAukmtW-38" value="" style="edgeStyle=orthogonalEdgeStyle;rounded=0;orthogonalLoop=1;jettySize=auto;html=1;fontSize=13;" parent="1" source="GB9RlgLRgatuVVAukmtW-37" target="GB9RlgLRgatuVVAukmtW-35" edge="1">
          <mxGeometry relative="1" as="geometry" />
        </mxCell>
        <mxCell id="GB9RlgLRgatuVVAukmtW-37" value="brand operator进入crm" style="rounded=0;whiteSpace=wrap;html=1;" parent="1" vertex="1">
          <mxGeometry x="70" y="-1430" width="120" height="60" as="geometry" />
        </mxCell>
        <mxCell id="GB9RlgLRgatuVVAukmtW-128" value="" style="edgeStyle=orthogonalEdgeStyle;rounded=0;orthogonalLoop=1;jettySize=auto;html=1;fontSize=13;" parent="1" source="GB9RlgLRgatuVVAukmtW-39" target="GB9RlgLRgatuVVAukmtW-127" edge="1">
          <mxGeometry relative="1" as="geometry" />
        </mxCell>
        <mxCell id="GB9RlgLRgatuVVAukmtW-39" value="将任务标注为成功" style="whiteSpace=wrap;html=1;rounded=0;fillColor=#ffcc99;strokeColor=#36393d;" parent="1" vertex="1">
          <mxGeometry x="200" y="40" width="120" height="60" as="geometry" />
        </mxCell>
        <mxCell id="GB9RlgLRgatuVVAukmtW-46" value="endUser需要校验mac的唯一性（同一个brandId下面mac不可重复），如果收到的mac在该brand下面已经存在了，返回失败并将已经存在的设备信息返回" style="text;html=1;strokeColor=none;fillColor=none;align=center;verticalAlign=middle;whiteSpace=wrap;rounded=0;fontSize=13;" parent="1" vertex="1">
          <mxGeometry x="420" y="-320" width="150" height="130" as="geometry" />
        </mxCell>
        <mxCell id="GB9RlgLRgatuVVAukmtW-77" value="" style="edgeStyle=orthogonalEdgeStyle;rounded=0;orthogonalLoop=1;jettySize=auto;html=1;fontSize=13;" parent="1" source="GB9RlgLRgatuVVAukmtW-49" target="GB9RlgLRgatuVVAukmtW-76" edge="1">
          <mxGeometry relative="1" as="geometry" />
        </mxCell>
        <mxCell id="GB9RlgLRgatuVVAukmtW-49" value="将设备信息通过excel导入" style="whiteSpace=wrap;html=1;rounded=0;" parent="1" vertex="1">
          <mxGeometry x="-50" y="-700" width="120" height="60" as="geometry" />
        </mxCell>
        <mxCell id="GB9RlgLRgatuVVAukmtW-54" value="" style="edgeStyle=orthogonalEdgeStyle;rounded=0;orthogonalLoop=1;jettySize=auto;html=1;fontSize=13;" parent="1" source="GB9RlgLRgatuVVAukmtW-51" target="GB9RlgLRgatuVVAukmtW-53" edge="1">
          <mxGeometry relative="1" as="geometry" />
        </mxCell>
        <mxCell id="GB9RlgLRgatuVVAukmtW-51" value="校验（字段长度，字段范围）" style="whiteSpace=wrap;html=1;rounded=0;" parent="1" vertex="1">
          <mxGeometry x="-50" y="-510" width="120" height="60" as="geometry" />
        </mxCell>
        <mxCell id="GB9RlgLRgatuVVAukmtW-56" value="no" style="edgeStyle=orthogonalEdgeStyle;rounded=0;orthogonalLoop=1;jettySize=auto;html=1;fontSize=13;entryX=0;entryY=0.5;entryDx=0;entryDy=0;" parent="1" source="GB9RlgLRgatuVVAukmtW-53" target="GB9RlgLRgatuVVAukmtW-33" edge="1">
          <mxGeometry relative="1" as="geometry">
            <mxPoint x="220" y="720" as="targetPoint" />
            <Array as="points">
              <mxPoint x="-90" y="-370" />
              <mxPoint x="-90" y="90" />
            </Array>
          </mxGeometry>
        </mxCell>
        <mxCell id="GB9RlgLRgatuVVAukmtW-125" style="edgeStyle=orthogonalEdgeStyle;rounded=0;orthogonalLoop=1;jettySize=auto;html=1;entryX=0.5;entryY=0;entryDx=0;entryDy=0;fontSize=13;" parent="1" source="GB9RlgLRgatuVVAukmtW-53" target="GB9RlgLRgatuVVAukmtW-79" edge="1">
          <mxGeometry relative="1" as="geometry" />
        </mxCell>
        <mxCell id="GB9RlgLRgatuVVAukmtW-126" value="yes" style="edgeLabel;html=1;align=center;verticalAlign=middle;resizable=0;points=[];fontSize=13;" parent="GB9RlgLRgatuVVAukmtW-125" vertex="1" connectable="0">
          <mxGeometry x="-0.3059" y="3" relative="1" as="geometry">
            <mxPoint as="offset" />
          </mxGeometry>
        </mxCell>
        <mxCell id="GB9RlgLRgatuVVAukmtW-53" value="校验通过" style="rhombus;whiteSpace=wrap;html=1;rounded=0;" parent="1" vertex="1">
          <mxGeometry x="-30" y="-410" width="80" height="80" as="geometry" />
        </mxCell>
        <mxCell id="GB9RlgLRgatuVVAukmtW-60" value="" style="edgeStyle=orthogonalEdgeStyle;rounded=0;orthogonalLoop=1;jettySize=auto;html=1;fontSize=13;" parent="1" source="GB9RlgLRgatuVVAukmtW-58" target="GB9RlgLRgatuVVAukmtW-1" edge="1">
          <mxGeometry relative="1" as="geometry" />
        </mxCell>
        <mxCell id="GB9RlgLRgatuVVAukmtW-58" value="开启异步线程" style="rounded=0;whiteSpace=wrap;html=1;" parent="1" vertex="1">
          <mxGeometry x="70" y="-1010" width="120" height="60" as="geometry" />
        </mxCell>
        <mxCell id="GB9RlgLRgatuVVAukmtW-78" value="" style="edgeStyle=orthogonalEdgeStyle;rounded=0;orthogonalLoop=1;jettySize=auto;html=1;fontSize=13;" parent="1" source="GB9RlgLRgatuVVAukmtW-76" target="GB9RlgLRgatuVVAukmtW-51" edge="1">
          <mxGeometry relative="1" as="geometry" />
        </mxCell>
        <mxCell id="GB9RlgLRgatuVVAukmtW-76" value="填写批次名、批次描述、是否生成st" style="whiteSpace=wrap;html=1;rounded=0;" parent="1" vertex="1">
          <mxGeometry x="-50" y="-600" width="120" height="60" as="geometry" />
        </mxCell>
        <mxCell id="GB9RlgLRgatuVVAukmtW-82" style="edgeStyle=orthogonalEdgeStyle;rounded=0;orthogonalLoop=1;jettySize=auto;html=1;entryX=0.5;entryY=0;entryDx=0;entryDy=0;fontSize=13;" parent="1" source="GB9RlgLRgatuVVAukmtW-79" target="GB9RlgLRgatuVVAukmtW-20" edge="1">
          <mxGeometry relative="1" as="geometry">
            <Array as="points">
              <mxPoint x="10" y="-180" />
              <mxPoint x="130" y="-180" />
            </Array>
          </mxGeometry>
        </mxCell>
        <mxCell id="GB9RlgLRgatuVVAukmtW-79" value="调用endUser接口，将设备信息一次性(最大5w)发送到endUser" style="whiteSpace=wrap;html=1;rounded=0;fillColor=#ffff88;strokeColor=#36393d;" parent="1" vertex="1">
          <mxGeometry x="-50" y="-280" width="120" height="60" as="geometry" />
        </mxCell>
        <mxCell id="ehhJM1RL-bTGxjUs8TGh-160" value="" style="edgeStyle=orthogonalEdgeStyle;rounded=0;orthogonalLoop=1;jettySize=auto;html=1;" edge="1" parent="1" source="GB9RlgLRgatuVVAukmtW-84" target="ehhJM1RL-bTGxjUs8TGh-159">
          <mxGeometry relative="1" as="geometry" />
        </mxCell>
        <mxCell id="GB9RlgLRgatuVVAukmtW-84" value="更新设备" style="rounded=0;whiteSpace=wrap;html=1;fillColor=#cce5ff;strokeColor=#36393d;" parent="1" vertex="1">
          <mxGeometry x="305" y="980" width="120" height="60" as="geometry" />
        </mxCell>
        <mxCell id="GB9RlgLRgatuVVAukmtW-85" value="" style="edgeStyle=orthogonalEdgeStyle;rounded=0;orthogonalLoop=1;jettySize=auto;html=1;fontSize=13;" parent="1" source="GB9RlgLRgatuVVAukmtW-86" target="GB9RlgLRgatuVVAukmtW-84" edge="1">
          <mxGeometry relative="1" as="geometry" />
        </mxCell>
        <mxCell id="GB9RlgLRgatuVVAukmtW-86" value="brand operator进入crm" style="rounded=0;whiteSpace=wrap;html=1;fillColor=#cce5ff;strokeColor=#36393d;" parent="1" vertex="1">
          <mxGeometry x="305" y="840" width="120" height="60" as="geometry" />
        </mxCell>
        <mxCell id="GB9RlgLRgatuVVAukmtW-92" value="" style="edgeStyle=orthogonalEdgeStyle;rounded=0;orthogonalLoop=1;jettySize=auto;html=1;fontSize=13;" parent="1" source="GB9RlgLRgatuVVAukmtW-89" target="GB9RlgLRgatuVVAukmtW-91" edge="1">
          <mxGeometry relative="1" as="geometry" />
        </mxCell>
        <mxCell id="GB9RlgLRgatuVVAukmtW-89" value="校验（字段长度，字段范围）" style="whiteSpace=wrap;html=1;rounded=0;fillColor=#cce5ff;strokeColor=#36393d;" parent="1" vertex="1">
          <mxGeometry x="305" y="1530" width="120" height="60" as="geometry" />
        </mxCell>
        <mxCell id="GB9RlgLRgatuVVAukmtW-94" value="yes" style="edgeStyle=orthogonalEdgeStyle;rounded=0;orthogonalLoop=1;jettySize=auto;html=1;fontSize=13;" parent="1" source="GB9RlgLRgatuVVAukmtW-91" target="GB9RlgLRgatuVVAukmtW-93" edge="1">
          <mxGeometry relative="1" as="geometry" />
        </mxCell>
        <mxCell id="GB9RlgLRgatuVVAukmtW-120" style="edgeStyle=orthogonalEdgeStyle;rounded=0;orthogonalLoop=1;jettySize=auto;html=1;entryX=0.5;entryY=0;entryDx=0;entryDy=0;fontSize=13;" parent="1" source="GB9RlgLRgatuVVAukmtW-91" target="GB9RlgLRgatuVVAukmtW-116" edge="1">
          <mxGeometry relative="1" as="geometry" />
        </mxCell>
        <mxCell id="GB9RlgLRgatuVVAukmtW-121" value="no" style="edgeLabel;html=1;align=center;verticalAlign=middle;resizable=0;points=[];fontSize=13;" parent="GB9RlgLRgatuVVAukmtW-120" vertex="1" connectable="0">
          <mxGeometry x="0.08" y="-1" relative="1" as="geometry">
            <mxPoint x="1" y="149" as="offset" />
          </mxGeometry>
        </mxCell>
        <mxCell id="GB9RlgLRgatuVVAukmtW-91" value="校验成功" style="rhombus;whiteSpace=wrap;html=1;rounded=0;fillColor=#cce5ff;strokeColor=#36393d;" parent="1" vertex="1">
          <mxGeometry x="325" y="1650" width="80" height="80" as="geometry" />
        </mxCell>
        <mxCell id="ehhJM1RL-bTGxjUs8TGh-8" style="edgeStyle=orthogonalEdgeStyle;rounded=0;orthogonalLoop=1;jettySize=auto;html=1;entryX=0.5;entryY=0;entryDx=0;entryDy=0;" edge="1" parent="1" source="GB9RlgLRgatuVVAukmtW-93" target="GB9RlgLRgatuVVAukmtW-103">
          <mxGeometry relative="1" as="geometry" />
        </mxCell>
        <mxCell id="GB9RlgLRgatuVVAukmtW-93" value="调用endUser接口，更新设备信息" style="whiteSpace=wrap;html=1;rounded=0;fillColor=#ffff88;strokeColor=#36393d;" parent="1" vertex="1">
          <mxGeometry x="465" y="1750" width="120" height="60" as="geometry" />
        </mxCell>
        <mxCell id="GB9RlgLRgatuVVAukmtW-102" value="no" style="edgeStyle=orthogonalEdgeStyle;rounded=0;orthogonalLoop=1;jettySize=auto;html=1;fontSize=13;entryX=0.5;entryY=0;entryDx=0;entryDy=0;" parent="1" source="GB9RlgLRgatuVVAukmtW-103" target="GB9RlgLRgatuVVAukmtW-116" edge="1">
          <mxGeometry x="-0.5385" relative="1" as="geometry">
            <mxPoint x="225" y="1930" as="targetPoint" />
            <mxPoint as="offset" />
            <Array as="points">
              <mxPoint x="205" y="1870" />
            </Array>
          </mxGeometry>
        </mxCell>
        <mxCell id="ehhJM1RL-bTGxjUs8TGh-179" value="yes" style="edgeStyle=orthogonalEdgeStyle;rounded=0;orthogonalLoop=1;jettySize=auto;html=1;" edge="1" parent="1" source="GB9RlgLRgatuVVAukmtW-103" target="ehhJM1RL-bTGxjUs8TGh-178">
          <mxGeometry relative="1" as="geometry" />
        </mxCell>
        <mxCell id="GB9RlgLRgatuVVAukmtW-103" value="endUser正常返回" style="rhombus;whiteSpace=wrap;html=1;rounded=0;fillColor=#cce5ff;strokeColor=#36393d;" parent="1" vertex="1">
          <mxGeometry x="325" y="1830" width="80" height="80" as="geometry" />
        </mxCell>
        <mxCell id="GB9RlgLRgatuVVAukmtW-104" value="end" style="ellipse;whiteSpace=wrap;html=1;aspect=fixed;fontSize=13;fillColor=#cce5ff;strokeColor=#36393d;" parent="1" vertex="1">
          <mxGeometry x="325" y="2480" width="80" height="80" as="geometry" />
        </mxCell>
        <mxCell id="ehhJM1RL-bTGxjUs8TGh-190" value="" style="edgeStyle=orthogonalEdgeStyle;rounded=0;orthogonalLoop=1;jettySize=auto;html=1;" edge="1" parent="1" source="GB9RlgLRgatuVVAukmtW-113" target="ehhJM1RL-bTGxjUs8TGh-174">
          <mxGeometry relative="1" as="geometry" />
        </mxCell>
        <mxCell id="GB9RlgLRgatuVVAukmtW-113" value="添加日志（将返回的更新失败的设备标注为失败，其它为成功）" style="whiteSpace=wrap;html=1;rounded=0;fillColor=#cce5ff;strokeColor=#36393d;" parent="1" vertex="1">
          <mxGeometry x="305" y="2110" width="120" height="60" as="geometry" />
        </mxCell>
        <mxCell id="ehhJM1RL-bTGxjUs8TGh-192" style="edgeStyle=orthogonalEdgeStyle;rounded=0;orthogonalLoop=1;jettySize=auto;html=1;entryX=0.5;entryY=0;entryDx=0;entryDy=0;" edge="1" parent="1" source="GB9RlgLRgatuVVAukmtW-116" target="ehhJM1RL-bTGxjUs8TGh-174">
          <mxGeometry relative="1" as="geometry">
            <Array as="points">
              <mxPoint x="205" y="2240" />
            </Array>
          </mxGeometry>
        </mxCell>
        <mxCell id="GB9RlgLRgatuVVAukmtW-116" value="添加日志（所有设备标注为失败）" style="whiteSpace=wrap;html=1;rounded=0;fillColor=#cce5ff;strokeColor=#36393d;" parent="1" vertex="1">
          <mxGeometry x="145" y="1980" width="120" height="60" as="geometry" />
        </mxCell>
        <mxCell id="GB9RlgLRgatuVVAukmtW-124" value="" style="edgeStyle=orthogonalEdgeStyle;rounded=0;orthogonalLoop=1;jettySize=auto;html=1;fontSize=13;" parent="1" source="GB9RlgLRgatuVVAukmtW-122" target="GB9RlgLRgatuVVAukmtW-24" edge="1">
          <mxGeometry relative="1" as="geometry">
            <Array as="points">
              <mxPoint x="260" y="330" />
            </Array>
          </mxGeometry>
        </mxCell>
        <mxCell id="GB9RlgLRgatuVVAukmtW-122" value="添加日志" style="whiteSpace=wrap;html=1;rounded=0;" parent="1" vertex="1">
          <mxGeometry x="200" y="220" width="120" height="60" as="geometry" />
        </mxCell>
        <mxCell id="GB9RlgLRgatuVVAukmtW-129" value="" style="edgeStyle=orthogonalEdgeStyle;rounded=0;orthogonalLoop=1;jettySize=auto;html=1;fontSize=13;" parent="1" source="GB9RlgLRgatuVVAukmtW-127" target="GB9RlgLRgatuVVAukmtW-122" edge="1">
          <mxGeometry relative="1" as="geometry" />
        </mxCell>
        <mxCell id="GB9RlgLRgatuVVAukmtW-127" value="将批次信息保存到数据库中" style="whiteSpace=wrap;html=1;rounded=0;" parent="1" vertex="1">
          <mxGeometry x="200" y="140" width="120" height="60" as="geometry" />
        </mxCell>
        <mxCell id="ehhJM1RL-bTGxjUs8TGh-3" style="edgeStyle=orthogonalEdgeStyle;rounded=0;orthogonalLoop=1;jettySize=auto;html=1;entryX=0;entryY=0.5;entryDx=0;entryDy=0;" edge="1" parent="1" source="ehhJM1RL-bTGxjUs8TGh-1" target="GB9RlgLRgatuVVAukmtW-24">
          <mxGeometry relative="1" as="geometry">
            <Array as="points">
              <mxPoint y="330" />
            </Array>
          </mxGeometry>
        </mxCell>
        <mxCell id="ehhJM1RL-bTGxjUs8TGh-1" value="添加日志" style="whiteSpace=wrap;html=1;rounded=0;" vertex="1" parent="1">
          <mxGeometry x="-60" y="190" width="120" height="60" as="geometry" />
        </mxCell>
        <mxCell id="GB9RlgLRgatuVVAukmtW-14" value="调用endUser接口，生成设备（mac,vendor）" style="whiteSpace=wrap;html=1;rounded=0;fillColor=#ffff88;strokeColor=#36393d;" parent="1" vertex="1">
          <mxGeometry x="200" y="-280" width="120" height="60" as="geometry" />
        </mxCell>
        <mxCell id="ehhJM1RL-bTGxjUs8TGh-10" value="mac/gsfid/uuid有一个不同则修改不成功，只能修改该批次下的设备，endUser将返回修改不成功的设备集合" style="text;whiteSpace=wrap;html=1;" vertex="1" parent="1">
          <mxGeometry x="635" y="1750" width="130" height="40" as="geometry" />
        </mxCell>
        <mxCell id="ehhJM1RL-bTGxjUs8TGh-13" value="" style="edgeStyle=orthogonalEdgeStyle;rounded=0;orthogonalLoop=1;jettySize=auto;html=1;" edge="1" parent="1" source="ehhJM1RL-bTGxjUs8TGh-11" target="ehhJM1RL-bTGxjUs8TGh-12">
          <mxGeometry relative="1" as="geometry" />
        </mxCell>
        <mxCell id="ehhJM1RL-bTGxjUs8TGh-11" value="brand operator进入crm" style="rounded=0;whiteSpace=wrap;html=1;fillColor=#cce5ff;strokeColor=#36393d;" vertex="1" parent="1">
          <mxGeometry x="310" y="3080" width="280" height="60" as="geometry" />
        </mxCell>
        <mxCell id="ehhJM1RL-bTGxjUs8TGh-24" value="" style="edgeStyle=orthogonalEdgeStyle;rounded=0;orthogonalLoop=1;jettySize=auto;html=1;" edge="1" parent="1" source="ehhJM1RL-bTGxjUs8TGh-12" target="ehhJM1RL-bTGxjUs8TGh-23">
          <mxGeometry relative="1" as="geometry" />
        </mxCell>
        <mxCell id="ehhJM1RL-bTGxjUs8TGh-12" value="预付费操作（添加设备、更新设备、开户、更新订阅、销户、解锁订单...）" style="whiteSpace=wrap;html=1;rounded=0;fillColor=#cce5ff;strokeColor=#36393d;" vertex="1" parent="1">
          <mxGeometry x="310" y="3220" width="280" height="60" as="geometry" />
        </mxCell>
        <mxCell id="ehhJM1RL-bTGxjUs8TGh-26" value="" style="edgeStyle=orthogonalEdgeStyle;rounded=0;orthogonalLoop=1;jettySize=auto;html=1;" edge="1" parent="1" source="ehhJM1RL-bTGxjUs8TGh-23" target="ehhJM1RL-bTGxjUs8TGh-25">
          <mxGeometry relative="1" as="geometry" />
        </mxCell>
        <mxCell id="ehhJM1RL-bTGxjUs8TGh-23" value="像goose_crm_pre_paid_log新增一条行为记录" style="whiteSpace=wrap;html=1;rounded=0;fillColor=#cce5ff;strokeColor=#36393d;" vertex="1" parent="1">
          <mxGeometry x="310" y="3360" width="280" height="60" as="geometry" />
        </mxCell>
        <mxCell id="ehhJM1RL-bTGxjUs8TGh-25" value="像goose_crm_pre_paid_log_detail表中新增所有设备成功|失败日记记录" style="whiteSpace=wrap;html=1;rounded=0;fillColor=#cce5ff;strokeColor=#36393d;" vertex="1" parent="1">
          <mxGeometry x="315" y="3500" width="270" height="60" as="geometry" />
        </mxCell>
        <mxCell id="ehhJM1RL-bTGxjUs8TGh-29" value="" style="edgeStyle=orthogonalEdgeStyle;rounded=0;orthogonalLoop=1;jettySize=auto;html=1;" edge="1" parent="1" source="ehhJM1RL-bTGxjUs8TGh-27" target="ehhJM1RL-bTGxjUs8TGh-28">
          <mxGeometry relative="1" as="geometry" />
        </mxCell>
        <mxCell id="ehhJM1RL-bTGxjUs8TGh-27" value="brand operator进入crm" style="rounded=0;whiteSpace=wrap;html=1;" vertex="1" parent="1">
          <mxGeometry x="300" y="3760" width="120" height="60" as="geometry" />
        </mxCell>
        <mxCell id="ehhJM1RL-bTGxjUs8TGh-37" style="edgeStyle=orthogonalEdgeStyle;rounded=0;orthogonalLoop=1;jettySize=auto;html=1;entryX=0.5;entryY=0;entryDx=0;entryDy=0;" edge="1" parent="1" source="ehhJM1RL-bTGxjUs8TGh-28" target="ehhJM1RL-bTGxjUs8TGh-31">
          <mxGeometry relative="1" as="geometry">
            <mxPoint x="230" y="3990" as="targetPoint" />
          </mxGeometry>
        </mxCell>
        <mxCell id="ehhJM1RL-bTGxjUs8TGh-38" style="edgeStyle=orthogonalEdgeStyle;rounded=0;orthogonalLoop=1;jettySize=auto;html=1;entryX=0.5;entryY=0;entryDx=0;entryDy=0;" edge="1" parent="1" source="ehhJM1RL-bTGxjUs8TGh-28" target="ehhJM1RL-bTGxjUs8TGh-32">
          <mxGeometry relative="1" as="geometry" />
        </mxCell>
        <mxCell id="ehhJM1RL-bTGxjUs8TGh-28" value="查询日志" style="whiteSpace=wrap;html=1;rounded=0;" vertex="1" parent="1">
          <mxGeometry x="300" y="3900" width="120" height="60" as="geometry" />
        </mxCell>
        <mxCell id="ehhJM1RL-bTGxjUs8TGh-39" value="" style="edgeStyle=orthogonalEdgeStyle;rounded=0;orthogonalLoop=1;jettySize=auto;html=1;" edge="1" parent="1" source="ehhJM1RL-bTGxjUs8TGh-31" target="ehhJM1RL-bTGxjUs8TGh-33">
          <mxGeometry relative="1" as="geometry" />
        </mxCell>
        <mxCell id="ehhJM1RL-bTGxjUs8TGh-31" value="brand级别的日志查询" style="whiteSpace=wrap;html=1;rounded=0;" vertex="1" parent="1">
          <mxGeometry x="180" y="4000" width="120" height="60" as="geometry" />
        </mxCell>
        <mxCell id="ehhJM1RL-bTGxjUs8TGh-40" value="" style="edgeStyle=orthogonalEdgeStyle;rounded=0;orthogonalLoop=1;jettySize=auto;html=1;" edge="1" parent="1" source="ehhJM1RL-bTGxjUs8TGh-32" target="ehhJM1RL-bTGxjUs8TGh-34">
          <mxGeometry relative="1" as="geometry" />
        </mxCell>
        <mxCell id="ehhJM1RL-bTGxjUs8TGh-32" value="batch级别的日志查询" style="whiteSpace=wrap;html=1;rounded=0;" vertex="1" parent="1">
          <mxGeometry x="414" y="4000" width="120" height="60" as="geometry" />
        </mxCell>
        <mxCell id="ehhJM1RL-bTGxjUs8TGh-42" value="" style="edgeStyle=orthogonalEdgeStyle;rounded=0;orthogonalLoop=1;jettySize=auto;html=1;" edge="1" parent="1" source="ehhJM1RL-bTGxjUs8TGh-33" target="ehhJM1RL-bTGxjUs8TGh-35">
          <mxGeometry relative="1" as="geometry" />
        </mxCell>
        <mxCell id="ehhJM1RL-bTGxjUs8TGh-33" value="查询行为日志" style="whiteSpace=wrap;html=1;rounded=0;fillColor=#cce5ff;strokeColor=#36393d;" vertex="1" parent="1">
          <mxGeometry x="180" y="4110" width="120" height="60" as="geometry" />
        </mxCell>
        <mxCell id="ehhJM1RL-bTGxjUs8TGh-41" value="" style="edgeStyle=orthogonalEdgeStyle;rounded=0;orthogonalLoop=1;jettySize=auto;html=1;" edge="1" parent="1" source="ehhJM1RL-bTGxjUs8TGh-34" target="ehhJM1RL-bTGxjUs8TGh-36">
          <mxGeometry relative="1" as="geometry" />
        </mxCell>
        <mxCell id="ehhJM1RL-bTGxjUs8TGh-34" value="查询行为日志" style="whiteSpace=wrap;html=1;rounded=0;" vertex="1" parent="1">
          <mxGeometry x="414" y="4110" width="120" height="60" as="geometry" />
        </mxCell>
        <mxCell id="ehhJM1RL-bTGxjUs8TGh-45" style="edgeStyle=orthogonalEdgeStyle;rounded=0;orthogonalLoop=1;jettySize=auto;html=1;" edge="1" parent="1" source="ehhJM1RL-bTGxjUs8TGh-35">
          <mxGeometry relative="1" as="geometry">
            <mxPoint x="340" y="4350" as="targetPoint" />
          </mxGeometry>
        </mxCell>
        <mxCell id="ehhJM1RL-bTGxjUs8TGh-35" value="查询行为日志详情" style="whiteSpace=wrap;html=1;rounded=0;" vertex="1" parent="1">
          <mxGeometry x="180" y="4230" width="120" height="60" as="geometry" />
        </mxCell>
        <mxCell id="ehhJM1RL-bTGxjUs8TGh-44" style="edgeStyle=orthogonalEdgeStyle;rounded=0;orthogonalLoop=1;jettySize=auto;html=1;entryX=0.5;entryY=0;entryDx=0;entryDy=0;" edge="1" parent="1" source="ehhJM1RL-bTGxjUs8TGh-36" target="ehhJM1RL-bTGxjUs8TGh-43">
          <mxGeometry relative="1" as="geometry" />
        </mxCell>
        <mxCell id="ehhJM1RL-bTGxjUs8TGh-36" value="查询行为日志详情" style="whiteSpace=wrap;html=1;rounded=0;fillColor=#cce5ff;strokeColor=#36393d;" vertex="1" parent="1">
          <mxGeometry x="414" y="4230" width="120" height="60" as="geometry" />
        </mxCell>
        <mxCell id="ehhJM1RL-bTGxjUs8TGh-43" value="导出日志详情excel" style="whiteSpace=wrap;html=1;rounded=0;fillColor=#cce5ff;strokeColor=#36393d;" vertex="1" parent="1">
          <mxGeometry x="280" y="4350" width="120" height="60" as="geometry" />
        </mxCell>
        <mxCell id="ehhJM1RL-bTGxjUs8TGh-46" value="SELECT * FROM goose_crm_pre_paid_log WHERE brand_id = {};" style="text;html=1;strokeColor=none;fillColor=none;align=center;verticalAlign=middle;whiteSpace=wrap;rounded=0;" vertex="1" parent="1">
          <mxGeometry x="-260" y="4125" width="380" height="30" as="geometry" />
        </mxCell>
        <mxCell id="ehhJM1RL-bTGxjUs8TGh-47" value="&lt;div&gt;SELECT * FROM goose_crm_pre_paid_log a INNER JOIN goose_crm_pre_paid_log_detail b ON a.id = b.log_id WHERE b.batch_id = {} and a.brand_id = {};&lt;/div&gt;&lt;div&gt;&lt;br&gt;&lt;/div&gt;" style="text;html=1;strokeColor=none;fillColor=none;align=center;verticalAlign=middle;whiteSpace=wrap;rounded=0;" vertex="1" parent="1">
          <mxGeometry x="570" y="4105" width="410" height="65" as="geometry" />
        </mxCell>
        <mxCell id="ehhJM1RL-bTGxjUs8TGh-48" value="&lt;div&gt;SELECT * FROM goose_crm_pre_paid_log_detail WHERE log_id = {};&lt;/div&gt;&lt;div&gt;&lt;br&gt;&lt;/div&gt;" style="text;html=1;strokeColor=none;fillColor=none;align=center;verticalAlign=middle;whiteSpace=wrap;rounded=0;" vertex="1" parent="1">
          <mxGeometry x="-290" y="4220" width="390" height="55" as="geometry" />
        </mxCell>
        <mxCell id="ehhJM1RL-bTGxjUs8TGh-49" value="SELECT * FROM goose_crm_pre_paid_log_detail WHERE log_id = {} and batch_id = {};" style="text;html=1;strokeColor=none;fillColor=none;align=center;verticalAlign=middle;whiteSpace=wrap;rounded=0;" vertex="1" parent="1">
          <mxGeometry x="550" y="4250" width="550" height="30" as="geometry" />
        </mxCell>
        <mxCell id="ehhJM1RL-bTGxjUs8TGh-52" value="" style="edgeStyle=orthogonalEdgeStyle;rounded=0;orthogonalLoop=1;jettySize=auto;html=1;" edge="1" parent="1" source="ehhJM1RL-bTGxjUs8TGh-50" target="ehhJM1RL-bTGxjUs8TGh-51">
          <mxGeometry relative="1" as="geometry" />
        </mxCell>
        <mxCell id="ehhJM1RL-bTGxjUs8TGh-50" value="brand operator进入crm" style="rounded=0;whiteSpace=wrap;html=1;fillColor=#cce5ff;strokeColor=#36393d;" vertex="1" parent="1">
          <mxGeometry x="270" y="4560" width="120" height="60" as="geometry" />
        </mxCell>
        <mxCell id="ehhJM1RL-bTGxjUs8TGh-56" value="" style="edgeStyle=orthogonalEdgeStyle;rounded=0;orthogonalLoop=1;jettySize=auto;html=1;" edge="1" parent="1" source="ehhJM1RL-bTGxjUs8TGh-51" target="ehhJM1RL-bTGxjUs8TGh-54">
          <mxGeometry relative="1" as="geometry" />
        </mxCell>
        <mxCell id="ehhJM1RL-bTGxjUs8TGh-57" style="edgeStyle=orthogonalEdgeStyle;rounded=0;orthogonalLoop=1;jettySize=auto;html=1;entryX=0.5;entryY=0;entryDx=0;entryDy=0;" edge="1" parent="1" source="ehhJM1RL-bTGxjUs8TGh-51" target="ehhJM1RL-bTGxjUs8TGh-53">
          <mxGeometry relative="1" as="geometry">
            <Array as="points">
              <mxPoint x="330" y="4800" />
              <mxPoint x="80" y="4800" />
            </Array>
          </mxGeometry>
        </mxCell>
        <mxCell id="ehhJM1RL-bTGxjUs8TGh-58" style="edgeStyle=orthogonalEdgeStyle;rounded=0;orthogonalLoop=1;jettySize=auto;html=1;" edge="1" parent="1" source="ehhJM1RL-bTGxjUs8TGh-51" target="ehhJM1RL-bTGxjUs8TGh-55">
          <mxGeometry relative="1" as="geometry">
            <Array as="points">
              <mxPoint x="330" y="4800" />
              <mxPoint x="560" y="4800" />
            </Array>
          </mxGeometry>
        </mxCell>
        <mxCell id="ehhJM1RL-bTGxjUs8TGh-51" value="vendor 管理" style="whiteSpace=wrap;html=1;rounded=0;fillColor=#cce5ff;strokeColor=#36393d;" vertex="1" parent="1">
          <mxGeometry x="270" y="4700" width="120" height="60" as="geometry" />
        </mxCell>
        <mxCell id="ehhJM1RL-bTGxjUs8TGh-60" style="edgeStyle=orthogonalEdgeStyle;rounded=0;orthogonalLoop=1;jettySize=auto;html=1;entryX=0.5;entryY=0;entryDx=0;entryDy=0;" edge="1" parent="1" source="ehhJM1RL-bTGxjUs8TGh-53" target="ehhJM1RL-bTGxjUs8TGh-59">
          <mxGeometry relative="1" as="geometry" />
        </mxCell>
        <mxCell id="ehhJM1RL-bTGxjUs8TGh-53" value="新增" style="whiteSpace=wrap;html=1;rounded=0;fillColor=#cce5ff;strokeColor=#36393d;" vertex="1" parent="1">
          <mxGeometry x="20" y="4860" width="120" height="60" as="geometry" />
        </mxCell>
        <mxCell id="ehhJM1RL-bTGxjUs8TGh-61" style="edgeStyle=orthogonalEdgeStyle;rounded=0;orthogonalLoop=1;jettySize=auto;html=1;" edge="1" parent="1" source="ehhJM1RL-bTGxjUs8TGh-54">
          <mxGeometry relative="1" as="geometry">
            <mxPoint x="200" y="5000" as="targetPoint" />
            <Array as="points">
              <mxPoint x="330" y="4960" />
              <mxPoint x="200" y="4960" />
            </Array>
          </mxGeometry>
        </mxCell>
        <mxCell id="ehhJM1RL-bTGxjUs8TGh-54" value="编辑" style="whiteSpace=wrap;html=1;rounded=0;fillColor=#cce5ff;strokeColor=#36393d;" vertex="1" parent="1">
          <mxGeometry x="270" y="4860" width="120" height="60" as="geometry" />
        </mxCell>
        <mxCell id="ehhJM1RL-bTGxjUs8TGh-65" value="" style="edgeStyle=orthogonalEdgeStyle;rounded=0;orthogonalLoop=1;jettySize=auto;html=1;" edge="1" parent="1" source="ehhJM1RL-bTGxjUs8TGh-55" target="ehhJM1RL-bTGxjUs8TGh-64">
          <mxGeometry relative="1" as="geometry" />
        </mxCell>
        <mxCell id="ehhJM1RL-bTGxjUs8TGh-55" value="查询" style="whiteSpace=wrap;html=1;rounded=0;fillColor=#cce5ff;strokeColor=#36393d;" vertex="1" parent="1">
          <mxGeometry x="500" y="4860" width="120" height="60" as="geometry" />
        </mxCell>
        <mxCell id="ehhJM1RL-bTGxjUs8TGh-63" value="" style="edgeStyle=orthogonalEdgeStyle;rounded=0;orthogonalLoop=1;jettySize=auto;html=1;" edge="1" parent="1" source="ehhJM1RL-bTGxjUs8TGh-59" target="ehhJM1RL-bTGxjUs8TGh-62">
          <mxGeometry relative="1" as="geometry" />
        </mxCell>
        <mxCell id="ehhJM1RL-bTGxjUs8TGh-59" value="调用endUser接口" style="whiteSpace=wrap;html=1;rounded=0;fillColor=#ffff88;strokeColor=#36393d;" vertex="1" parent="1">
          <mxGeometry x="140" y="5000" width="120" height="60" as="geometry" />
        </mxCell>
        <mxCell id="ehhJM1RL-bTGxjUs8TGh-62" value="endUser数据库" style="strokeWidth=2;html=1;shape=mxgraph.flowchart.database;whiteSpace=wrap;fillColor=#f9f7ed;strokeColor=#36393d;" vertex="1" parent="1">
          <mxGeometry x="150" y="5130" width="100" height="60" as="geometry" />
        </mxCell>
        <mxCell id="ehhJM1RL-bTGxjUs8TGh-64" value="endUser从库" style="strokeWidth=2;html=1;shape=mxgraph.flowchart.database;whiteSpace=wrap;fillColor=#f9f7ed;strokeColor=#36393d;" vertex="1" parent="1">
          <mxGeometry x="510" y="5000" width="100" height="60" as="geometry" />
        </mxCell>
        <mxCell id="ehhJM1RL-bTGxjUs8TGh-68" value="" style="edgeStyle=orthogonalEdgeStyle;rounded=0;orthogonalLoop=1;jettySize=auto;html=1;" edge="1" parent="1" source="ehhJM1RL-bTGxjUs8TGh-66" target="ehhJM1RL-bTGxjUs8TGh-67">
          <mxGeometry relative="1" as="geometry" />
        </mxCell>
        <mxCell id="ehhJM1RL-bTGxjUs8TGh-66" value="brand operator进入crm" style="rounded=0;whiteSpace=wrap;html=1;" vertex="1" parent="1">
          <mxGeometry x="260" y="5370" width="120" height="60" as="geometry" />
        </mxCell>
        <mxCell id="ehhJM1RL-bTGxjUs8TGh-84" style="edgeStyle=orthogonalEdgeStyle;rounded=0;orthogonalLoop=1;jettySize=auto;html=1;entryX=0.5;entryY=0;entryDx=0;entryDy=0;" edge="1" parent="1" source="ehhJM1RL-bTGxjUs8TGh-67" target="ehhJM1RL-bTGxjUs8TGh-69">
          <mxGeometry relative="1" as="geometry" />
        </mxCell>
        <mxCell id="ehhJM1RL-bTGxjUs8TGh-86" style="edgeStyle=orthogonalEdgeStyle;rounded=0;orthogonalLoop=1;jettySize=auto;html=1;entryX=0.5;entryY=0;entryDx=0;entryDy=0;" edge="1" parent="1" source="ehhJM1RL-bTGxjUs8TGh-67" target="ehhJM1RL-bTGxjUs8TGh-70">
          <mxGeometry relative="1" as="geometry" />
        </mxCell>
        <mxCell id="ehhJM1RL-bTGxjUs8TGh-67" value="DAC 设置" style="whiteSpace=wrap;html=1;rounded=0;fillColor=#cce5ff;strokeColor=#36393d;" vertex="1" parent="1">
          <mxGeometry x="260" y="5510" width="120" height="60" as="geometry" />
        </mxCell>
        <mxCell id="ehhJM1RL-bTGxjUs8TGh-74" value="" style="edgeStyle=orthogonalEdgeStyle;rounded=0;orthogonalLoop=1;jettySize=auto;html=1;" edge="1" parent="1" source="ehhJM1RL-bTGxjUs8TGh-69" target="ehhJM1RL-bTGxjUs8TGh-72">
          <mxGeometry relative="1" as="geometry">
            <Array as="points">
              <mxPoint x="220" y="5840" />
              <mxPoint x="330" y="5840" />
            </Array>
          </mxGeometry>
        </mxCell>
        <mxCell id="ehhJM1RL-bTGxjUs8TGh-69" value="brand级别全局设置" style="whiteSpace=wrap;html=1;rounded=0;fillColor=#cce5ff;strokeColor=#36393d;" vertex="1" parent="1">
          <mxGeometry x="160" y="5630" width="120" height="60" as="geometry" />
        </mxCell>
        <mxCell id="ehhJM1RL-bTGxjUs8TGh-78" value="" style="edgeStyle=orthogonalEdgeStyle;rounded=0;orthogonalLoop=1;jettySize=auto;html=1;" edge="1" parent="1" source="ehhJM1RL-bTGxjUs8TGh-70" target="ehhJM1RL-bTGxjUs8TGh-77">
          <mxGeometry relative="1" as="geometry" />
        </mxCell>
        <mxCell id="ehhJM1RL-bTGxjUs8TGh-70" value="设置单个设备" style="whiteSpace=wrap;html=1;rounded=0;fillColor=#cce5ff;strokeColor=#36393d;" vertex="1" parent="1">
          <mxGeometry x="380" y="5630" width="120" height="60" as="geometry" />
        </mxCell>
        <mxCell id="ehhJM1RL-bTGxjUs8TGh-83" value="" style="edgeStyle=orthogonalEdgeStyle;rounded=0;orthogonalLoop=1;jettySize=auto;html=1;" edge="1" parent="1" source="ehhJM1RL-bTGxjUs8TGh-72" target="ehhJM1RL-bTGxjUs8TGh-82">
          <mxGeometry relative="1" as="geometry" />
        </mxCell>
        <mxCell id="ehhJM1RL-bTGxjUs8TGh-72" value="调用endUser接口" style="whiteSpace=wrap;html=1;rounded=0;fillColor=#ffff88;strokeColor=#36393d;" vertex="1" parent="1">
          <mxGeometry x="270" y="5870" width="120" height="60" as="geometry" />
        </mxCell>
        <mxCell id="ehhJM1RL-bTGxjUs8TGh-75" value="endUser从库" style="strokeWidth=2;html=1;shape=mxgraph.flowchart.database;whiteSpace=wrap;fillColor=#eeeeee;strokeColor=#36393d;" vertex="1" parent="1">
          <mxGeometry x="590" y="5750" width="100" height="60" as="geometry" />
        </mxCell>
        <mxCell id="ehhJM1RL-bTGxjUs8TGh-79" value="" style="edgeStyle=orthogonalEdgeStyle;rounded=0;orthogonalLoop=1;jettySize=auto;html=1;" edge="1" parent="1" source="ehhJM1RL-bTGxjUs8TGh-77" target="ehhJM1RL-bTGxjUs8TGh-75">
          <mxGeometry relative="1" as="geometry" />
        </mxCell>
        <mxCell id="ehhJM1RL-bTGxjUs8TGh-81" style="edgeStyle=orthogonalEdgeStyle;rounded=0;orthogonalLoop=1;jettySize=auto;html=1;" edge="1" parent="1" source="ehhJM1RL-bTGxjUs8TGh-77" target="ehhJM1RL-bTGxjUs8TGh-72">
          <mxGeometry relative="1" as="geometry">
            <Array as="points">
              <mxPoint x="440" y="5840" />
              <mxPoint x="330" y="5840" />
            </Array>
          </mxGeometry>
        </mxCell>
        <mxCell id="ehhJM1RL-bTGxjUs8TGh-77" value="查询设备拒绝日志" style="whiteSpace=wrap;html=1;rounded=0;fillColor=#cce5ff;strokeColor=#36393d;" vertex="1" parent="1">
          <mxGeometry x="380" y="5750" width="120" height="60" as="geometry" />
        </mxCell>
        <mxCell id="ehhJM1RL-bTGxjUs8TGh-82" value="更改DAC设置" style="whiteSpace=wrap;html=1;rounded=0;fillColor=#ffff88;strokeColor=#36393d;" vertex="1" parent="1">
          <mxGeometry x="270" y="6010" width="120" height="60" as="geometry" />
        </mxCell>
        <mxCell id="ehhJM1RL-bTGxjUs8TGh-91" value="" style="edgeStyle=orthogonalEdgeStyle;rounded=0;orthogonalLoop=1;jettySize=auto;html=1;" edge="1" parent="1" source="ehhJM1RL-bTGxjUs8TGh-87" target="ehhJM1RL-bTGxjUs8TGh-90">
          <mxGeometry relative="1" as="geometry" />
        </mxCell>
        <mxCell id="ehhJM1RL-bTGxjUs8TGh-87" value="crm" style="rounded=0;whiteSpace=wrap;html=1;fillColor=#dae8fc;strokeColor=#6c8ebf;" vertex="1" parent="1">
          <mxGeometry x="-200" y="-1850" width="120" height="60" as="geometry" />
        </mxCell>
        <mxCell id="ehhJM1RL-bTGxjUs8TGh-89" value="" style="edgeStyle=orthogonalEdgeStyle;rounded=0;orthogonalLoop=1;jettySize=auto;html=1;" edge="1" parent="1" source="ehhJM1RL-bTGxjUs8TGh-88" target="ehhJM1RL-bTGxjUs8TGh-87">
          <mxGeometry relative="1" as="geometry" />
        </mxCell>
        <mxCell id="ehhJM1RL-bTGxjUs8TGh-88" value="&lt;span style=&quot;&quot;&gt;brand operator&lt;/span&gt;" style="shape=umlActor;verticalLabelPosition=bottom;verticalAlign=top;html=1;outlineConnect=0;fillColor=#dae8fc;strokeColor=#6c8ebf;" vertex="1" parent="1">
          <mxGeometry x="-310" y="-1850" width="20" height="60" as="geometry" />
        </mxCell>
        <mxCell id="ehhJM1RL-bTGxjUs8TGh-94" value="" style="edgeStyle=orthogonalEdgeStyle;rounded=0;orthogonalLoop=1;jettySize=auto;html=1;" edge="1" parent="1" source="ehhJM1RL-bTGxjUs8TGh-90" target="ehhJM1RL-bTGxjUs8TGh-93">
          <mxGeometry relative="1" as="geometry" />
        </mxCell>
        <mxCell id="ehhJM1RL-bTGxjUs8TGh-90" value="添加设备" style="whiteSpace=wrap;html=1;rounded=0;fillColor=#dae8fc;strokeColor=#6c8ebf;" vertex="1" parent="1">
          <mxGeometry y="-1850" width="120" height="60" as="geometry" />
        </mxCell>
        <mxCell id="ehhJM1RL-bTGxjUs8TGh-92" value="更新设备" style="whiteSpace=wrap;html=1;rounded=0;fillColor=#dae8fc;strokeColor=#6c8ebf;" vertex="1" parent="1">
          <mxGeometry y="-1740" width="120" height="60" as="geometry" />
        </mxCell>
        <mxCell id="ehhJM1RL-bTGxjUs8TGh-97" value="" style="edgeStyle=orthogonalEdgeStyle;rounded=0;orthogonalLoop=1;jettySize=auto;html=1;" edge="1" parent="1" source="ehhJM1RL-bTGxjUs8TGh-93" target="ehhJM1RL-bTGxjUs8TGh-96">
          <mxGeometry relative="1" as="geometry" />
        </mxCell>
        <mxCell id="ehhJM1RL-bTGxjUs8TGh-93" value="开户" style="whiteSpace=wrap;html=1;rounded=0;fillColor=#dae8fc;strokeColor=#6c8ebf;" vertex="1" parent="1">
          <mxGeometry x="200" y="-1850" width="120" height="60" as="geometry" />
        </mxCell>
        <mxCell id="ehhJM1RL-bTGxjUs8TGh-95" value="更新订阅" style="whiteSpace=wrap;html=1;rounded=0;fillColor=#dae8fc;strokeColor=#6c8ebf;" vertex="1" parent="1">
          <mxGeometry x="200" y="-1740" width="120" height="60" as="geometry" />
        </mxCell>
        <mxCell id="ehhJM1RL-bTGxjUs8TGh-96" value="解锁" style="whiteSpace=wrap;html=1;rounded=0;fillColor=#dae8fc;strokeColor=#6c8ebf;" vertex="1" parent="1">
          <mxGeometry x="660" y="-1850" width="120" height="60" as="geometry" />
        </mxCell>
        <mxCell id="ehhJM1RL-bTGxjUs8TGh-98" value="vendor管理" style="whiteSpace=wrap;html=1;rounded=0;fillColor=#ffcccc;strokeColor=#36393d;" vertex="1" parent="1">
          <mxGeometry x="-61" y="-2000" width="120" height="60" as="geometry" />
        </mxCell>
        <mxCell id="ehhJM1RL-bTGxjUs8TGh-99" value="dac设置" style="whiteSpace=wrap;html=1;rounded=0;fillColor=#ffcccc;strokeColor=#36393d;" vertex="1" parent="1">
          <mxGeometry x="117" y="-2000" width="120" height="60" as="geometry" />
        </mxCell>
        <mxCell id="ehhJM1RL-bTGxjUs8TGh-100" value="操作日志" style="whiteSpace=wrap;html=1;rounded=0;fillColor=#ffcccc;strokeColor=#36393d;" vertex="1" parent="1">
          <mxGeometry x="280" y="-2000" width="120" height="60" as="geometry" />
        </mxCell>
        <mxCell id="ehhJM1RL-bTGxjUs8TGh-103" value="" style="endArrow=classic;startArrow=classic;html=1;rounded=0;exitX=0.5;exitY=0;exitDx=0;exitDy=0;entryX=0.5;entryY=1;entryDx=0;entryDy=0;" edge="1" parent="1" source="ehhJM1RL-bTGxjUs8TGh-92" target="ehhJM1RL-bTGxjUs8TGh-90">
          <mxGeometry width="50" height="50" relative="1" as="geometry">
            <mxPoint x="30" y="-1740" as="sourcePoint" />
            <mxPoint x="80" y="-1790" as="targetPoint" />
          </mxGeometry>
        </mxCell>
        <mxCell id="ehhJM1RL-bTGxjUs8TGh-104" value="" style="endArrow=classic;startArrow=classic;html=1;rounded=0;exitX=0.5;exitY=0;exitDx=0;exitDy=0;entryX=0.5;entryY=1;entryDx=0;entryDy=0;" edge="1" parent="1" source="ehhJM1RL-bTGxjUs8TGh-95" target="ehhJM1RL-bTGxjUs8TGh-93">
          <mxGeometry width="50" height="50" relative="1" as="geometry">
            <mxPoint x="70" y="-1730" as="sourcePoint" />
            <mxPoint x="70" y="-1780" as="targetPoint" />
            <Array as="points" />
          </mxGeometry>
        </mxCell>
        <mxCell id="ehhJM1RL-bTGxjUs8TGh-105" value="确认解锁订单" style="whiteSpace=wrap;html=1;rounded=0;fillColor=#dae8fc;strokeColor=#6c8ebf;" vertex="1" parent="1">
          <mxGeometry x="580" y="-1740" width="120" height="60" as="geometry" />
        </mxCell>
        <mxCell id="ehhJM1RL-bTGxjUs8TGh-106" value="取消解锁订单" style="whiteSpace=wrap;html=1;rounded=0;fillColor=#dae8fc;strokeColor=#6c8ebf;" vertex="1" parent="1">
          <mxGeometry x="730" y="-1740" width="120" height="60" as="geometry" />
        </mxCell>
        <mxCell id="ehhJM1RL-bTGxjUs8TGh-107" value="删除解锁订单" style="whiteSpace=wrap;html=1;rounded=0;fillColor=#dae8fc;strokeColor=#6c8ebf;" vertex="1" parent="1">
          <mxGeometry x="890" y="-1740" width="120" height="60" as="geometry" />
        </mxCell>
        <mxCell id="ehhJM1RL-bTGxjUs8TGh-108" value="创建解锁订单" style="whiteSpace=wrap;html=1;rounded=0;fillColor=#dae8fc;strokeColor=#6c8ebf;" vertex="1" parent="1">
          <mxGeometry x="414" y="-1740" width="120" height="60" as="geometry" />
        </mxCell>
        <mxCell id="ehhJM1RL-bTGxjUs8TGh-109" value="销户" style="whiteSpace=wrap;html=1;rounded=0;fillColor=#ffcccc;strokeColor=#36393d;" vertex="1" parent="1">
          <mxGeometry x="425" y="-1910" width="120" height="60" as="geometry" />
        </mxCell>
        <mxCell id="ehhJM1RL-bTGxjUs8TGh-116" value="" style="endArrow=classic;html=1;rounded=0;exitX=0.5;exitY=1;exitDx=0;exitDy=0;entryX=0.5;entryY=0;entryDx=0;entryDy=0;" edge="1" parent="1" source="ehhJM1RL-bTGxjUs8TGh-96" target="ehhJM1RL-bTGxjUs8TGh-108">
          <mxGeometry width="50" height="50" relative="1" as="geometry">
            <mxPoint x="550" y="-1740" as="sourcePoint" />
            <mxPoint x="600" y="-1790" as="targetPoint" />
          </mxGeometry>
        </mxCell>
        <mxCell id="ehhJM1RL-bTGxjUs8TGh-117" value="" style="endArrow=classic;html=1;rounded=0;exitX=0.5;exitY=1;exitDx=0;exitDy=0;entryX=0.5;entryY=0;entryDx=0;entryDy=0;" edge="1" parent="1" source="ehhJM1RL-bTGxjUs8TGh-96" target="ehhJM1RL-bTGxjUs8TGh-105">
          <mxGeometry width="50" height="50" relative="1" as="geometry">
            <mxPoint x="730" y="-1780" as="sourcePoint" />
            <mxPoint x="484" y="-1730" as="targetPoint" />
          </mxGeometry>
        </mxCell>
        <mxCell id="ehhJM1RL-bTGxjUs8TGh-118" value="" style="endArrow=classic;html=1;rounded=0;entryX=0.5;entryY=0;entryDx=0;entryDy=0;" edge="1" parent="1" target="ehhJM1RL-bTGxjUs8TGh-106">
          <mxGeometry width="50" height="50" relative="1" as="geometry">
            <mxPoint x="720" y="-1790" as="sourcePoint" />
            <mxPoint x="494" y="-1720" as="targetPoint" />
          </mxGeometry>
        </mxCell>
        <mxCell id="ehhJM1RL-bTGxjUs8TGh-119" value="" style="endArrow=classic;html=1;rounded=0;entryX=0.5;entryY=0;entryDx=0;entryDy=0;" edge="1" parent="1" target="ehhJM1RL-bTGxjUs8TGh-107">
          <mxGeometry width="50" height="50" relative="1" as="geometry">
            <mxPoint x="720" y="-1790" as="sourcePoint" />
            <mxPoint x="504" y="-1710" as="targetPoint" />
          </mxGeometry>
        </mxCell>
        <mxCell id="ehhJM1RL-bTGxjUs8TGh-120" value="brand operator进入crm" style="rounded=0;whiteSpace=wrap;html=1;fillColor=#cce5ff;strokeColor=#36393d;" vertex="1" parent="1">
          <mxGeometry x="69" y="-1430" width="120" height="60" as="geometry" />
        </mxCell>
        <mxCell id="ehhJM1RL-bTGxjUs8TGh-152" value="" style="edgeStyle=orthogonalEdgeStyle;rounded=0;orthogonalLoop=1;jettySize=auto;html=1;" edge="1" parent="1" source="ehhJM1RL-bTGxjUs8TGh-121" target="ehhJM1RL-bTGxjUs8TGh-151">
          <mxGeometry relative="1" as="geometry" />
        </mxCell>
        <mxCell id="ehhJM1RL-bTGxjUs8TGh-121" value="添加批次" style="rounded=0;whiteSpace=wrap;html=1;fillColor=#cce5ff;strokeColor=#36393d;" vertex="1" parent="1">
          <mxGeometry x="69" y="-1310" width="120" height="60" as="geometry" />
        </mxCell>
        <mxCell id="ehhJM1RL-bTGxjUs8TGh-122" value="开启异步线程" style="rounded=0;whiteSpace=wrap;html=1;fillColor=#cce5ff;strokeColor=#36393d;" vertex="1" parent="1">
          <mxGeometry x="69" y="-1010" width="120" height="60" as="geometry" />
        </mxCell>
        <mxCell id="ehhJM1RL-bTGxjUs8TGh-123" value="自动生成设备" style="rhombus;whiteSpace=wrap;html=1;rounded=0;fillColor=#cce5ff;strokeColor=#36393d;" vertex="1" parent="1">
          <mxGeometry x="89" y="-800" width="80" height="80" as="geometry" />
        </mxCell>
        <mxCell id="ehhJM1RL-bTGxjUs8TGh-124" value="将设备信息通过excel导入" style="whiteSpace=wrap;html=1;rounded=0;fillColor=#cce5ff;strokeColor=#36393d;" vertex="1" parent="1">
          <mxGeometry x="-51" y="-700" width="120" height="60" as="geometry" />
        </mxCell>
        <mxCell id="ehhJM1RL-bTGxjUs8TGh-125" value="填写批次名、批次描述、是否生成st" style="whiteSpace=wrap;html=1;rounded=0;fillColor=#cce5ff;strokeColor=#36393d;" vertex="1" parent="1">
          <mxGeometry x="-51" y="-600" width="120" height="60" as="geometry" />
        </mxCell>
        <mxCell id="ehhJM1RL-bTGxjUs8TGh-126" value="校验（字段长度，字段范围）" style="whiteSpace=wrap;html=1;rounded=0;fillColor=#cce5ff;strokeColor=#36393d;" vertex="1" parent="1">
          <mxGeometry x="-51" y="-510" width="120" height="60" as="geometry" />
        </mxCell>
        <mxCell id="ehhJM1RL-bTGxjUs8TGh-127" value="&lt;font style=&quot;font-size: 13px;&quot;&gt;填写mac的前缀（5字符）+后缀（3字符）+数量（最大5w）+vendor+&lt;span style=&quot;color: rgb(51, 51, 51); font-family: &amp;quot;Arial Negreta&amp;quot;, &amp;quot;Arial Normal&amp;quot;, Arial, sans-serif; font-weight: 700; text-align: left;&quot;&gt;Security control（是否生成st...）+batchName+batch description&lt;/span&gt;&lt;/font&gt;" style="whiteSpace=wrap;html=1;rounded=0;fillColor=#cce5ff;strokeColor=#36393d;" vertex="1" parent="1">
          <mxGeometry x="169" y="-560" width="180" height="100" as="geometry" />
        </mxCell>
        <mxCell id="ehhJM1RL-bTGxjUs8TGh-128" value="校验通过" style="rhombus;whiteSpace=wrap;html=1;rounded=0;fillColor=#cce5ff;strokeColor=#36393d;" vertex="1" parent="1">
          <mxGeometry x="-31" y="-410" width="80" height="80" as="geometry" />
        </mxCell>
        <mxCell id="ehhJM1RL-bTGxjUs8TGh-129" value="endUser正常返回" style="rhombus;whiteSpace=wrap;html=1;rounded=0;fillColor=#cce5ff;strokeColor=#36393d;" vertex="1" parent="1">
          <mxGeometry x="89" y="-100" width="80" height="80" as="geometry" />
        </mxCell>
        <mxCell id="ehhJM1RL-bTGxjUs8TGh-130" value="将批次信息保存到数据库中" style="whiteSpace=wrap;html=1;rounded=0;fillColor=#cce5ff;strokeColor=#36393d;" vertex="1" parent="1">
          <mxGeometry x="199" y="140" width="120" height="60" as="geometry" />
        </mxCell>
        <mxCell id="ehhJM1RL-bTGxjUs8TGh-131" value="添加日志" style="whiteSpace=wrap;html=1;rounded=0;fillColor=#cce5ff;strokeColor=#36393d;" vertex="1" parent="1">
          <mxGeometry x="-61" y="190" width="120" height="60" as="geometry" />
        </mxCell>
        <mxCell id="ehhJM1RL-bTGxjUs8TGh-132" value="添加日志" style="whiteSpace=wrap;html=1;rounded=0;fillColor=#cce5ff;strokeColor=#36393d;" vertex="1" parent="1">
          <mxGeometry x="199" y="220" width="120" height="60" as="geometry" />
        </mxCell>
        <mxCell id="ehhJM1RL-bTGxjUs8TGh-135" value="brand operator进入crm" style="rounded=0;whiteSpace=wrap;html=1;fillColor=#cce5ff;strokeColor=#36393d;" vertex="1" parent="1">
          <mxGeometry x="260" y="5370" width="120" height="60" as="geometry" />
        </mxCell>
        <mxCell id="ehhJM1RL-bTGxjUs8TGh-136" value="brand operator进入crm" style="rounded=0;whiteSpace=wrap;html=1;" vertex="1" parent="1">
          <mxGeometry x="300" y="3760" width="120" height="60" as="geometry" />
        </mxCell>
        <mxCell id="ehhJM1RL-bTGxjUs8TGh-137" value="查询日志" style="whiteSpace=wrap;html=1;rounded=0;" vertex="1" parent="1">
          <mxGeometry x="300" y="3900" width="120" height="60" as="geometry" />
        </mxCell>
        <mxCell id="ehhJM1RL-bTGxjUs8TGh-138" value="brand级别的日志查询" style="whiteSpace=wrap;html=1;rounded=0;" vertex="1" parent="1">
          <mxGeometry x="180" y="4000" width="120" height="60" as="geometry" />
        </mxCell>
        <mxCell id="ehhJM1RL-bTGxjUs8TGh-139" value="batch级别的日志查询" style="whiteSpace=wrap;html=1;rounded=0;" vertex="1" parent="1">
          <mxGeometry x="414" y="4000" width="120" height="60" as="geometry" />
        </mxCell>
        <mxCell id="ehhJM1RL-bTGxjUs8TGh-140" value="查询行为日志" style="whiteSpace=wrap;html=1;rounded=0;" vertex="1" parent="1">
          <mxGeometry x="414" y="4110" width="120" height="60" as="geometry" />
        </mxCell>
        <mxCell id="ehhJM1RL-bTGxjUs8TGh-141" value="brand operator进入crm" style="rounded=0;whiteSpace=wrap;html=1;fillColor=#cce5ff;strokeColor=#36393d;" vertex="1" parent="1">
          <mxGeometry x="300" y="3760" width="120" height="60" as="geometry" />
        </mxCell>
        <mxCell id="ehhJM1RL-bTGxjUs8TGh-142" value="查询日志" style="whiteSpace=wrap;html=1;rounded=0;fillColor=#cce5ff;strokeColor=#36393d;" vertex="1" parent="1">
          <mxGeometry x="300" y="3900" width="120" height="60" as="geometry" />
        </mxCell>
        <mxCell id="ehhJM1RL-bTGxjUs8TGh-143" value="brand级别的日志查询" style="whiteSpace=wrap;html=1;rounded=0;fillColor=#cce5ff;strokeColor=#36393d;" vertex="1" parent="1">
          <mxGeometry x="180" y="4000" width="120" height="60" as="geometry" />
        </mxCell>
        <mxCell id="ehhJM1RL-bTGxjUs8TGh-144" value="batch级别的日志查询" style="whiteSpace=wrap;html=1;rounded=0;fillColor=#cce5ff;strokeColor=#36393d;" vertex="1" parent="1">
          <mxGeometry x="414" y="4000" width="120" height="60" as="geometry" />
        </mxCell>
        <mxCell id="ehhJM1RL-bTGxjUs8TGh-145" value="查询行为日志" style="whiteSpace=wrap;html=1;rounded=0;fillColor=#cce5ff;strokeColor=#36393d;" vertex="1" parent="1">
          <mxGeometry x="414" y="4110" width="120" height="60" as="geometry" />
        </mxCell>
        <mxCell id="ehhJM1RL-bTGxjUs8TGh-146" value="查询行为日志详情" style="whiteSpace=wrap;html=1;rounded=0;fillColor=#cce5ff;strokeColor=#36393d;" vertex="1" parent="1">
          <mxGeometry x="180" y="4230" width="120" height="60" as="geometry" />
        </mxCell>
        <mxCell id="ehhJM1RL-bTGxjUs8TGh-147" value="block/unblock" style="whiteSpace=wrap;html=1;rounded=0;fillColor=#cce5ff;strokeColor=#36393d;" vertex="1" parent="1">
          <mxGeometry x="1100" y="-1850" width="120" height="60" as="geometry" />
        </mxCell>
        <mxCell id="ehhJM1RL-bTGxjUs8TGh-153" value="yes" style="edgeStyle=orthogonalEdgeStyle;rounded=0;orthogonalLoop=1;jettySize=auto;html=1;" edge="1" parent="1" source="ehhJM1RL-bTGxjUs8TGh-151" target="ehhJM1RL-bTGxjUs8TGh-122">
          <mxGeometry relative="1" as="geometry" />
        </mxCell>
        <mxCell id="ehhJM1RL-bTGxjUs8TGh-154" style="edgeStyle=orthogonalEdgeStyle;rounded=0;orthogonalLoop=1;jettySize=auto;html=1;" edge="1" parent="1" source="ehhJM1RL-bTGxjUs8TGh-151">
          <mxGeometry relative="1" as="geometry">
            <mxPoint x="90" y="330" as="targetPoint" />
            <Array as="points">
              <mxPoint x="-190" y="-1140" />
              <mxPoint x="-190" y="330" />
            </Array>
          </mxGeometry>
        </mxCell>
        <mxCell id="ehhJM1RL-bTGxjUs8TGh-155" value="no" style="edgeLabel;html=1;align=center;verticalAlign=middle;resizable=0;points=[];" vertex="1" connectable="0" parent="ehhJM1RL-bTGxjUs8TGh-154">
          <mxGeometry x="-0.8338" y="1" relative="1" as="geometry">
            <mxPoint as="offset" />
          </mxGeometry>
        </mxCell>
        <mxCell id="ehhJM1RL-bTGxjUs8TGh-151" value="该品牌下没有正在进行中的添加批次任务" style="rhombus;whiteSpace=wrap;html=1;rounded=0;fillColor=#cce5ff;strokeColor=#36393d;" vertex="1" parent="1">
          <mxGeometry x="9" y="-1180" width="240" height="80" as="geometry" />
        </mxCell>
        <mxCell id="ehhJM1RL-bTGxjUs8TGh-168" value="yes" style="edgeStyle=orthogonalEdgeStyle;rounded=0;orthogonalLoop=1;jettySize=auto;html=1;" edge="1" parent="1" source="ehhJM1RL-bTGxjUs8TGh-156" target="ehhJM1RL-bTGxjUs8TGh-162">
          <mxGeometry relative="1" as="geometry" />
        </mxCell>
        <mxCell id="ehhJM1RL-bTGxjUs8TGh-169" style="edgeStyle=orthogonalEdgeStyle;rounded=0;orthogonalLoop=1;jettySize=auto;html=1;entryX=0;entryY=0.5;entryDx=0;entryDy=0;" edge="1" parent="1" source="ehhJM1RL-bTGxjUs8TGh-156" target="GB9RlgLRgatuVVAukmtW-104">
          <mxGeometry relative="1" as="geometry">
            <mxPoint x="325" y="2270" as="targetPoint" />
            <Array as="points">
              <mxPoint x="115" y="1240" />
              <mxPoint x="115" y="2520" />
            </Array>
          </mxGeometry>
        </mxCell>
        <mxCell id="ehhJM1RL-bTGxjUs8TGh-170" value="no" style="edgeLabel;html=1;align=center;verticalAlign=middle;resizable=0;points=[];" vertex="1" connectable="0" parent="ehhJM1RL-bTGxjUs8TGh-169">
          <mxGeometry x="-0.8475" y="4" relative="1" as="geometry">
            <mxPoint as="offset" />
          </mxGeometry>
        </mxCell>
        <mxCell id="ehhJM1RL-bTGxjUs8TGh-156" value="该品牌下没有正在进行中的更新设备任务" style="rhombus;whiteSpace=wrap;html=1;rounded=0;fillColor=#cce5ff;strokeColor=#36393d;" vertex="1" parent="1">
          <mxGeometry x="245" y="1200" width="240" height="80" as="geometry" />
        </mxCell>
        <mxCell id="ehhJM1RL-bTGxjUs8TGh-167" value="yes" style="edgeStyle=orthogonalEdgeStyle;rounded=0;orthogonalLoop=1;jettySize=auto;html=1;" edge="1" parent="1" source="ehhJM1RL-bTGxjUs8TGh-159" target="ehhJM1RL-bTGxjUs8TGh-156">
          <mxGeometry relative="1" as="geometry" />
        </mxCell>
        <mxCell id="ehhJM1RL-bTGxjUs8TGh-171" style="edgeStyle=orthogonalEdgeStyle;rounded=0;orthogonalLoop=1;jettySize=auto;html=1;entryX=1;entryY=0.5;entryDx=0;entryDy=0;" edge="1" parent="1" source="ehhJM1RL-bTGxjUs8TGh-159" target="GB9RlgLRgatuVVAukmtW-89">
          <mxGeometry relative="1" as="geometry">
            <mxPoint x="625" y="1600" as="targetPoint" />
            <Array as="points">
              <mxPoint x="575" y="1120" />
              <mxPoint x="575" y="1560" />
            </Array>
          </mxGeometry>
        </mxCell>
        <mxCell id="ehhJM1RL-bTGxjUs8TGh-172" value="no" style="edgeLabel;html=1;align=center;verticalAlign=middle;resizable=0;points=[];" vertex="1" connectable="0" parent="ehhJM1RL-bTGxjUs8TGh-171">
          <mxGeometry x="-0.8027" y="-3" relative="1" as="geometry">
            <mxPoint as="offset" />
          </mxGeometry>
        </mxCell>
        <mxCell id="ehhJM1RL-bTGxjUs8TGh-159" value="excel导入更新" style="rhombus;whiteSpace=wrap;html=1;fillColor=#cce5ff;strokeColor=#36393d;rounded=0;" vertex="1" parent="1">
          <mxGeometry x="325" y="1080" width="80" height="80" as="geometry" />
        </mxCell>
        <mxCell id="ehhJM1RL-bTGxjUs8TGh-165" value="" style="edgeStyle=orthogonalEdgeStyle;rounded=0;orthogonalLoop=1;jettySize=auto;html=1;" edge="1" parent="1" source="ehhJM1RL-bTGxjUs8TGh-162" target="ehhJM1RL-bTGxjUs8TGh-164">
          <mxGeometry relative="1" as="geometry" />
        </mxCell>
        <mxCell id="ehhJM1RL-bTGxjUs8TGh-162" value="开启异步线程" style="whiteSpace=wrap;html=1;fillColor=#cce5ff;strokeColor=#36393d;rounded=0;" vertex="1" parent="1">
          <mxGeometry x="305" y="1330" width="120" height="60" as="geometry" />
        </mxCell>
        <mxCell id="ehhJM1RL-bTGxjUs8TGh-166" value="" style="edgeStyle=orthogonalEdgeStyle;rounded=0;orthogonalLoop=1;jettySize=auto;html=1;" edge="1" parent="1" source="ehhJM1RL-bTGxjUs8TGh-164" target="GB9RlgLRgatuVVAukmtW-89">
          <mxGeometry relative="1" as="geometry" />
        </mxCell>
        <mxCell id="ehhJM1RL-bTGxjUs8TGh-164" value="生成一条更新设备的任务" style="rounded=0;whiteSpace=wrap;html=1;fillColor=#ffcc99;strokeColor=#36393d;" vertex="1" parent="1">
          <mxGeometry x="305" y="1420" width="120" height="60" as="geometry" />
        </mxCell>
        <mxCell id="ehhJM1RL-bTGxjUs8TGh-193" value="yes" style="edgeStyle=orthogonalEdgeStyle;rounded=0;orthogonalLoop=1;jettySize=auto;html=1;" edge="1" parent="1" source="ehhJM1RL-bTGxjUs8TGh-174" target="ehhJM1RL-bTGxjUs8TGh-184">
          <mxGeometry relative="1" as="geometry" />
        </mxCell>
        <mxCell id="ehhJM1RL-bTGxjUs8TGh-195" style="edgeStyle=orthogonalEdgeStyle;rounded=0;orthogonalLoop=1;jettySize=auto;html=1;entryX=0;entryY=0.5;entryDx=0;entryDy=0;" edge="1" parent="1" source="ehhJM1RL-bTGxjUs8TGh-174" target="GB9RlgLRgatuVVAukmtW-104">
          <mxGeometry relative="1" as="geometry">
            <mxPoint x="320" y="2520" as="targetPoint" />
            <Array as="points">
              <mxPoint x="220" y="2280" />
              <mxPoint x="220" y="2520" />
            </Array>
          </mxGeometry>
        </mxCell>
        <mxCell id="ehhJM1RL-bTGxjUs8TGh-196" value="no" style="edgeLabel;html=1;align=center;verticalAlign=middle;resizable=0;points=[];" vertex="1" connectable="0" parent="ehhJM1RL-bTGxjUs8TGh-195">
          <mxGeometry x="-0.7011" y="-1" relative="1" as="geometry">
            <mxPoint as="offset" />
          </mxGeometry>
        </mxCell>
        <mxCell id="ehhJM1RL-bTGxjUs8TGh-174" value="是异步任务" style="rhombus;whiteSpace=wrap;html=1;fillColor=#cce5ff;strokeColor=#36393d;rounded=0;" vertex="1" parent="1">
          <mxGeometry x="325" y="2240" width="80" height="80" as="geometry" />
        </mxCell>
        <mxCell id="ehhJM1RL-bTGxjUs8TGh-180" value="yes" style="edgeStyle=orthogonalEdgeStyle;rounded=0;orthogonalLoop=1;jettySize=auto;html=1;" edge="1" parent="1" source="ehhJM1RL-bTGxjUs8TGh-178" target="GB9RlgLRgatuVVAukmtW-113">
          <mxGeometry relative="1" as="geometry" />
        </mxCell>
        <mxCell id="ehhJM1RL-bTGxjUs8TGh-183" value="no" style="edgeStyle=orthogonalEdgeStyle;rounded=0;orthogonalLoop=1;jettySize=auto;html=1;" edge="1" parent="1" source="ehhJM1RL-bTGxjUs8TGh-178" target="ehhJM1RL-bTGxjUs8TGh-182">
          <mxGeometry relative="1" as="geometry" />
        </mxCell>
        <mxCell id="ehhJM1RL-bTGxjUs8TGh-178" value="存在更新失败的设备" style="rhombus;whiteSpace=wrap;html=1;fillColor=#cce5ff;strokeColor=#36393d;rounded=0;" vertex="1" parent="1">
          <mxGeometry x="325" y="1980" width="80" height="80" as="geometry" />
        </mxCell>
        <mxCell id="ehhJM1RL-bTGxjUs8TGh-191" style="edgeStyle=orthogonalEdgeStyle;rounded=0;orthogonalLoop=1;jettySize=auto;html=1;" edge="1" parent="1" source="ehhJM1RL-bTGxjUs8TGh-182" target="ehhJM1RL-bTGxjUs8TGh-174">
          <mxGeometry relative="1" as="geometry">
            <Array as="points">
              <mxPoint x="530" y="2240" />
            </Array>
          </mxGeometry>
        </mxCell>
        <mxCell id="ehhJM1RL-bTGxjUs8TGh-182" value="添加日志（所有设备标注为成功）" style="whiteSpace=wrap;html=1;rounded=0;fillColor=#cce5ff;strokeColor=#36393d;" vertex="1" parent="1">
          <mxGeometry x="470" y="2110" width="120" height="60" as="geometry" />
        </mxCell>
        <mxCell id="ehhJM1RL-bTGxjUs8TGh-194" value="" style="edgeStyle=orthogonalEdgeStyle;rounded=0;orthogonalLoop=1;jettySize=auto;html=1;" edge="1" parent="1" source="ehhJM1RL-bTGxjUs8TGh-184" target="GB9RlgLRgatuVVAukmtW-104">
          <mxGeometry relative="1" as="geometry" />
        </mxCell>
        <mxCell id="ehhJM1RL-bTGxjUs8TGh-184" value="更新任务" style="rounded=0;whiteSpace=wrap;html=1;fillColor=#ffcc99;strokeColor=#36393d;" vertex="1" parent="1">
          <mxGeometry x="305" y="2370" width="120" height="60" as="geometry" />
        </mxCell>
        <mxCell id="ehhJM1RL-bTGxjUs8TGh-197" value="" style="endArrow=none;dashed=1;html=1;rounded=0;exitX=1;exitY=0.5;exitDx=0;exitDy=0;entryX=0;entryY=0.5;entryDx=0;entryDy=0;" edge="1" parent="1" source="ehhJM1RL-bTGxjUs8TGh-96" target="ehhJM1RL-bTGxjUs8TGh-147">
          <mxGeometry width="50" height="50" relative="1" as="geometry">
            <mxPoint x="850" y="-1800" as="sourcePoint" />
            <mxPoint x="900" y="-1850" as="targetPoint" />
          </mxGeometry>
        </mxCell>
        <mxCell id="ehhJM1RL-bTGxjUs8TGh-198" value="用户激活" style="edgeLabel;html=1;align=center;verticalAlign=middle;resizable=0;points=[];" vertex="1" connectable="0" parent="ehhJM1RL-bTGxjUs8TGh-197">
          <mxGeometry x="-0.0625" y="3" relative="1" as="geometry">
            <mxPoint as="offset" />
          </mxGeometry>
        </mxCell>
      </root>
    </mxGraphModel>
  </diagram>
</mxfile>
